<svg width="137" height="41" viewBox="0 0 137 41" fill="none" xmlns="http://www.w3.org/2000/svg">
<path d="M31.1411 17.0151C30.5814 15.0852 29.5631 13.3193 28.1731 11.8683C26.7831 10.4172 25.0627 9.32389 23.1586 8.68173C21.2775 8.13418 19.3003 7.99963 17.3624 8.2873C15.4244 8.57496 13.5715 9.27804 11.9306 10.3484C11.7955 10.4837 11.6262 10.5797 11.4408 10.6261C11.2553 10.6724 11.0608 10.6674 10.8779 10.6116C10.5094 10.4922 10.1773 10.2808 9.91303 9.99752C9.72065 9.65041 9.65844 9.24605 9.73759 8.85717C9.78785 8.67051 9.87612 8.49625 9.99688 8.3453C10.1176 8.19436 10.2683 8.06998 10.4393 7.97997C15.0885 5.26068 19.6499 4.55892 24.0358 5.96243C26.1951 6.68065 28.1665 7.87262 29.8057 9.45108C31.4449 11.0295 32.7104 12.9546 33.5095 15.0852H39.3867C38.185 10.3449 35.288 6.20907 31.2437 3.4598C27.1993 0.710538 22.2878 -0.461653 17.4378 0.164855C12.5877 0.791363 8.13532 3.17315 4.92233 6.85989C1.70934 10.5466 -0.0415304 15.2828 0.000748169 20.173C0.000748169 20.9624 0.0884675 21.6642 0.0884675 22.4537H7.54461C7.82937 22.4375 8.11167 22.5143 8.34898 22.6725C8.5863 22.8307 8.76578 23.0618 8.8604 23.3309C9.43332 25.2541 10.4562 27.0132 11.8444 28.4623C13.2326 29.9115 14.946 31.0091 16.8429 31.6642C18.724 32.2117 20.7012 32.3463 22.6391 32.0586C24.5771 31.771 26.43 31.0679 28.0709 29.9975C28.206 29.8622 28.3753 29.7662 28.5607 29.7199C28.7462 29.6735 28.9407 29.6785 29.1236 29.7344C29.4921 29.8538 29.8242 30.0651 30.0885 30.3484C30.2808 30.6955 30.3431 31.0999 30.2639 31.4887C30.2136 31.6754 30.1254 31.8497 30.0046 32.0006C29.8839 32.1516 29.7332 32.2759 29.5622 32.3659C26.918 34.1451 23.8018 35.0922 20.6148 35.0852C19.0396 35.0734 17.4742 34.8371 15.9657 34.3835C13.7973 33.6824 11.8172 32.4965 10.1757 30.9158C8.53413 29.335 7.27435 27.4011 6.49198 25.2607H0.702503C1.97062 29.9231 4.88375 33.9688 8.9034 36.65C12.9231 39.3311 17.7774 40.4665 22.5693 39.8461C27.3611 39.2257 31.7663 36.8916 34.9706 33.2752C38.175 29.6588 39.9618 25.0046 40.0007 20.173C40.0171 19.4409 39.9878 18.7084 39.913 17.98H32.5446C32.2455 17.9602 31.9573 17.8602 31.7103 17.6903C31.4633 17.5205 31.2667 17.2872 31.1411 17.0151Z" fill="white"/>
<path d="M49.0123 25.6729V14.0365H51.4726V18.8376H56.4669V14.0365H58.9214V25.6729H56.4669V20.866H51.4726V25.6729H49.0123ZM64.8817 25.8433C63.9839 25.8433 63.2112 25.6615 62.5635 25.2979C61.9195 24.9304 61.4233 24.4115 61.0748 23.741C60.7264 23.0668 60.5521 22.2694 60.5521 21.349C60.5521 20.4513 60.7264 19.6634 61.0748 18.9854C61.4233 18.3073 61.9139 17.7789 62.5464 17.4001C63.1828 17.0213 63.929 16.8319 64.7851 16.8319C65.3608 16.8319 65.8968 16.9247 66.393 17.1104C66.893 17.2922 67.3286 17.5668 67.6998 17.9342C68.0748 18.3016 68.3665 18.7638 68.5748 19.3206C68.7832 19.8736 68.8873 20.5213 68.8873 21.2638V21.9285H61.518V20.4285H66.6089C66.6089 20.08 66.5332 19.7713 66.3817 19.5024C66.2301 19.2335 66.0199 19.0232 65.751 18.8717C65.4858 18.7164 65.1771 18.6388 64.8248 18.6388C64.4574 18.6388 64.1317 18.724 63.8476 18.8944C63.5673 19.0611 63.3476 19.2865 63.1885 19.5706C63.0294 19.8509 62.9479 20.1634 62.9442 20.5081V21.9342C62.9442 22.366 63.0237 22.7391 63.1828 23.0535C63.3457 23.3679 63.5748 23.6104 63.8703 23.7808C64.1657 23.9513 64.5161 24.0365 64.9214 24.0365C65.1904 24.0365 65.4366 23.9986 65.6601 23.9229C65.8836 23.8471 66.0748 23.7335 66.2339 23.5819C66.393 23.4304 66.5142 23.2448 66.5976 23.0251L68.8362 23.1729C68.7226 23.7107 68.4896 24.1804 68.1373 24.5819C67.7889 24.9797 67.3381 25.2903 66.7851 25.5138C66.2358 25.7335 65.6014 25.8433 64.8817 25.8433ZM72.8873 14.0365V25.6729H70.4669V14.0365H72.8873ZM74.8263 28.9456V16.9456H77.2126V18.4115H77.3206C77.4266 18.1766 77.58 17.938 77.7808 17.6956C77.9854 17.4494 78.2505 17.2448 78.5763 17.0819C78.9058 16.9153 79.3149 16.8319 79.8035 16.8319C80.4399 16.8319 81.027 16.9986 81.5649 17.3319C82.1028 17.6615 82.5327 18.1596 82.8547 18.8263C83.1766 19.4891 83.3376 20.3206 83.3376 21.3206C83.3376 22.2941 83.1804 23.116 82.866 23.7865C82.5554 24.4532 82.1312 24.9588 81.5933 25.3035C81.0592 25.6444 80.4607 25.8149 79.7979 25.8149C79.3282 25.8149 78.9285 25.7372 78.599 25.5819C78.2732 25.4266 78.0062 25.2316 77.7979 24.9967C77.5895 24.7581 77.4304 24.5175 77.3206 24.2751H77.2467V28.9456H74.8263ZM77.1956 21.3092C77.1956 21.8282 77.2675 22.2808 77.4115 22.6672C77.5554 23.0535 77.7638 23.3547 78.0365 23.5706C78.3092 23.7827 78.6407 23.8888 79.0308 23.8888C79.4247 23.8888 79.7581 23.7808 80.0308 23.5649C80.3035 23.3452 80.51 23.0422 80.6501 22.6558C80.7941 22.2657 80.866 21.8168 80.866 21.3092C80.866 20.8054 80.796 20.3622 80.6558 19.9797C80.5157 19.5971 80.3092 19.2979 80.0365 19.0819C79.7638 18.866 79.4285 18.7581 79.0308 18.7581C78.6369 18.7581 78.3035 18.8622 78.0308 19.0706C77.7619 19.2789 77.5554 19.5744 77.4115 19.9569C77.2675 20.3395 77.1956 20.7903 77.1956 21.3092ZM84.9967 14.0365H88.0308L91.2354 21.8547H91.3717L94.5763 14.0365H97.6104V25.6729H95.224V18.099H95.1274L92.116 25.616H90.491L87.4797 18.0706H87.3831V25.6729H84.9967V14.0365ZM103.569 25.8433C102.671 25.8433 101.899 25.6615 101.251 25.2979C100.607 24.9304 100.111 24.4115 99.7623 23.741C99.4139 23.0668 99.2396 22.2694 99.2396 21.349C99.2396 20.4513 99.4139 19.6634 99.7623 18.9854C100.111 18.3073 100.601 17.7789 101.234 17.4001C101.87 17.0213 102.617 16.8319 103.473 16.8319C104.048 16.8319 104.584 16.9247 105.081 17.1104C105.581 17.2922 106.016 17.5668 106.387 17.9342C106.762 18.3016 107.054 18.7638 107.262 19.3206C107.471 19.8736 107.575 20.5213 107.575 21.2638V21.9285H100.206V20.4285H105.296C105.296 20.08 105.221 19.7713 105.069 19.5024C104.918 19.2335 104.707 19.0232 104.438 18.8717C104.173 18.7164 103.865 18.6388 103.512 18.6388C103.145 18.6388 102.819 18.724 102.535 18.8944C102.255 19.0611 102.035 19.2865 101.876 19.5706C101.717 19.8509 101.635 20.1634 101.632 20.5081V21.9342C101.632 22.366 101.711 22.7391 101.87 23.0535C102.033 23.3679 102.262 23.6104 102.558 23.7808C102.853 23.9513 103.204 24.0365 103.609 24.0365C103.878 24.0365 104.124 23.9986 104.348 23.9229C104.571 23.8471 104.762 23.7335 104.921 23.5819C105.081 23.4304 105.202 23.2448 105.285 23.0251L107.524 23.1729C107.41 23.7107 107.177 24.1804 106.825 24.5819C106.476 24.9797 106.026 25.2903 105.473 25.5138C104.923 25.7335 104.289 25.8433 103.569 25.8433ZM119.893 19.8547C119.893 21.1236 119.652 22.2032 119.171 23.0933C118.694 23.9835 118.043 24.6634 117.217 25.1331C116.395 25.599 115.471 25.8319 114.444 25.8319C113.41 25.8319 112.482 25.5971 111.66 25.1274C110.838 24.6577 110.188 23.9778 109.711 23.0876C109.234 22.1975 108.995 21.1198 108.995 19.8547C108.995 18.5857 109.234 17.5062 109.711 16.616C110.188 15.7259 110.838 15.0479 111.66 14.5819C112.482 14.1122 113.41 13.8774 114.444 13.8774C115.471 13.8774 116.395 14.1122 117.217 14.5819C118.043 15.0479 118.694 15.7259 119.171 16.616C119.652 17.5062 119.893 18.5857 119.893 19.8547ZM117.399 19.8547C117.399 19.0327 117.276 18.3395 117.029 17.7751C116.787 17.2107 116.444 16.7827 116.001 16.491C115.558 16.1994 115.039 16.0535 114.444 16.0535C113.849 16.0535 113.331 16.1994 112.887 16.491C112.444 16.7827 112.099 17.2107 111.853 17.7751C111.611 18.3395 111.49 19.0327 111.49 19.8547C111.49 20.6766 111.611 21.3698 111.853 21.9342C112.099 22.4986 112.444 22.9266 112.887 23.2183C113.331 23.51 113.849 23.6558 114.444 23.6558C115.039 23.6558 115.558 23.51 116.001 23.2183C116.444 22.9266 116.787 22.4986 117.029 21.9342C117.276 21.3698 117.399 20.6766 117.399 19.8547ZM127.267 21.9569V16.9456H129.687V25.6729H127.363V24.0876H127.272C127.075 24.599 126.748 25.01 126.289 25.3206C125.835 25.6312 125.28 25.7865 124.625 25.7865C124.041 25.7865 123.528 25.6539 123.085 25.3888C122.642 25.1236 122.295 24.7467 122.045 24.2581C121.799 23.7694 121.674 23.1842 121.67 22.5024V16.9456H124.09V22.0706C124.094 22.5857 124.233 22.9929 124.505 23.2922C124.778 23.5914 125.143 23.741 125.602 23.741C125.893 23.741 126.166 23.6747 126.42 23.5422C126.674 23.4058 126.878 23.205 127.034 22.9399C127.193 22.6747 127.27 22.3471 127.267 21.9569ZM136.265 16.9456V18.7638H131.009V16.9456H136.265ZM132.203 14.8547H134.623V22.991C134.623 23.2145 134.657 23.3888 134.725 23.5138C134.794 23.635 134.888 23.7202 135.009 23.7694C135.134 23.8187 135.278 23.8433 135.441 23.8433C135.555 23.8433 135.669 23.8338 135.782 23.8149C135.896 23.7922 135.983 23.7751 136.044 23.7638L136.424 25.5649C136.303 25.6028 136.133 25.6463 135.913 25.6956C135.693 25.7486 135.426 25.7808 135.112 25.7922C134.528 25.8149 134.017 25.7372 133.578 25.5592C133.142 25.3812 132.803 25.1047 132.561 24.7297C132.318 24.3547 132.199 23.8812 132.203 23.3092V14.8547Z" fill="white"/>
</svg>
